#!OML:ASF E:/inclinewalkrobotboard/Project1/Captureday1/Session1/subject1.ASF
:FULLY-SPECIFIED
:DEGREES
101
root 0 0 0 -1.3399026025419816 -1.197705373188884 -3.940500853484139
lowerback 20.403426707006144 2.745527073630381 -0.464909245464882
upperback 2.358023320591266 3.6901705572364714 -0.15334732016380115
thorax -8.862695213153543 1.7941105707740412 -0.5306547022272364
lowerneck -7.761428207419 -5.986613391116293 -1.0880927925845763
upperneck 1.006699213594331 -8.569130885046711 5.211118437749342
head 1.988214906624684 -3.939584342140374 1.2611824233895157
rclavicle 1.5659706950946199E-15 -5.865863583168394E-16
rhumerus 30.84931556680897 -10.296628380885268 -34.331333796042
rradius 138.40703787857063
rwrist -16.013465671791554
rhand -19.767523887645197 -29.552535720374813
rfingers 7.125019999999968
rthumb 6.589601089839123 -59.39721157716971
lclavicle -3.9147755189130294E-16 1.6019130679781776E-17
lhumerus -47.16481044937438 -6.151857503191678 79.68824986715441
lradius 61.910617804878555
lwrist 10.987984801086107
lhand -14.751693802517439 -19.459020064535082
lfingers 7.125019999999857
lthumb 11.32323538179863 10.352264365425569
rfemur -22.373492511073472 4.768881605619577 31.194260810589174
rtibia 53.597099999082
rfoot -8.660233907170273 -7.527152217384991
rtoes 8.782709976277019
lfemur -13.939613242242336 -0.1043301164135868 -19.87593851545573
ltibia 46.53214580268927
lfoot 4.4757847532398465 -11.297292729835075
ltoes 6.765180476825478
102
root 0 0 0 -1.2866311657585245 -1.13195563589992 -3.943189484440243
lowerback 20.459349018869126 2.6786558119161263 -0.5939240920742559
upperback 2.396150334938919 3.598674869392063 -0.0617865646136988
thorax -8.849737324421387 1.7530048623075616 -0.3515578611272955
lowerneck -7.5166501673728074 -5.9870842183946404 -0.9977450019154368
upperneck 1.458871676484753 -8.549776015841253 5.077530788862367
head 2.115295476593997 -3.9355942742609606 1.20266857999048
rclavicle 1.776970209472259E-15 -7.296495219215647E-16
rhumerus 29.804568553052093 -11.025241863947663 -34.967287033572205
rradius 136.59395689266017
rwrist -15.438668248277754
rhand -19.65196739548749 -29.556029518132153
rfingers 7.125019999999967
rthumb 6.699171423364974 -59.39864439728399
lclavicle -4.3902284885273066E-16 -9.343846864216548E-17
lhumerus -47.10147485344568 -6.230793563459348 79.82812894924092
lradius 61.92511207952825
lwrist 10.96576233348078
lhand -14.70113483618279 -19.520367989495412
lfingers 7.125019999999859
lthumb 11.371904928607705 10.272878849920932
rfemur -23.536862355423136 4.017413363601416 30.68810660470024
rtibia 57.310882433493234
rfoot -7.460665989218304 -6.77146102047795
rtoes 10.00384861032149
lfemur -12.970430485205169 0.19989424785808474 -19.141670135780487
ltibia 50.06396981315903
lfoot 4.8894975070638225 -11.974540145234442
ltoes 3.441311234579125
103
root 0 0 0 -1.2373424845996048 -1.0769595431122143 -3.95255054574613
lowerback 20.485442221546812 2.6319003968208605 -0.6803541459624312
upperback 2.400028044572528 3.53566519681908 -0.0024629804217639606
thorax -8.858172522846203 1.7239936375764242 -0.23390688872310925
lowerneck -7.348239659977569 -5.984913691488965 -0.9260290574547259
upperneck 1.696795010951183 -8.533746480061682 4.982396712217512
head 2.1796655919858976 -3.9318837009040415 1.1608450937114592
rclavicle 1.6517725509117672E-15 -6.959723693781871E-16
rhumerus 29.651513125435706 -11.35778668847567 -34.72992785448574
rradius 136.33740372913104
rwrist -16.070878146505766
rhand -19.519701659665444 -29.882189324624818
rfingers 7.125019999999967
rthumb 6.825038461093771 -59.71735432615667
lclavicle -6.070736985888865E-16 -6.278197844042973E-17
lhumerus -47.01466928281138 -6.344145997247825 80.02446150264939
lradius 61.956972335208604
lwrist 10.925866842895031
lhand -14.623883270354206 -19.653076532080878
lfingers 7.125019999999862
lthumb 11.44731862671041 10.111735873266493
rfemur -23.80754644717088 3.646782033912308 30.449823008154382
rtibia 58.986213614521965
rfoot -6.9116013846870725 -6.220391261647759
rtoes 11.013310537281608
lfemur -12.9498242456987 0.8206848816027299 -17.881143426871848
ltibia 54.88270212525471
lfoot 4.5309768361687155 -12.112852175100798
ltoes -0.7801144807899973
104
root 0 0 0 -1.209536535361864 -1.0451139111596472 -3.9688368795281
lowerback 20.468749522026215 2.628721879226227 -0.6887427560034853
upperback 2.3393198068996286 3.532890119555315 -0.004847492144055221
thorax -8.914517944930179 1.7218925740776796 -0.23270837160598487
lowerneck -7.3417402785232095 -5.985456196300377 -0.9006023698825345
upperneck 1.5825538321953072 -8.537062402271566 4.973383666845621
head 2.1460358613093513 -3.93358606145262 1.155250194052885
rclavicle 1.0932907138812843E-15 -5.1537062678367E-16
rhumerus 30.729711744046327 -11.070029052519367 -33.4020182643301
rradius 138.14987233335222
rwrist -18.105923113940204
rhand -19.379148911047672 -30.526262014802747
rfingers 7.125019999999967
rthumb 6.9592234889079245 -60.3480916927237
lclavicle -9.085221839497666E-16 1.0930319180470543E-16
lhumerus -46.902518418175575 -6.484840813740649 80.26424967984981
lradius 62.009552409336635
lwrist 10.869095538483698
lhand -14.526055058451687 -19.869551223337112
lfingers 7.125019999999866
lthumb 11.543553203282167 9.859820046025755
rfemur -23.348539146498645 3.7465308482311044 30.58778873586366
rtibia 57.84485487691861
rfoot -7.410318847028702 -5.992590285824512
rtoes 11.71196220110118
lfemur -14.384036777697338 1.7446240058993303 -16.275474748887355
ltibia 60.10344490746205
lfoot 3.213572178885471 -11.494928771883338
ltoes -4.77330212915745
105
root 0 0 0 -1.2127320329611364 -1.0501792688650635 -3.990072297422039
lowerback 20.405442213837887 2.6884728305210563 -0.589636109562383
upperback 2.2121013111922623 3.6166428908659194 -0.09111809658966386
thorax -9.018983562512942 1.7587870705169375 -0.39119839028687886
lowerneck -7.545772024475069 -5.99147443764592 -0.9457992577218044
upperneck 1.0496839918420466 -8.569654877038769 5.088884535272155
head 1.997744977604845 -3.9434618181154226 1.201724098016559
rclavicle 2.504272791047141E-16 -2.0052120258231809E-16
rhumerus 32.607933796555486 -10.059979966952518 -31.459341703870674
rradius 141.48786644886388
rwrist -20.949774076846655
rhand -19.242430157012194 -31.28027162696365
rfingers 7.1250199999999655
rthumb 7.089915001473639 -61.0868543912851
lclavicle -1.3669352113307622E-15 3.8634246732602494E-16
lhumerus -46.78624589371359 -6.628376847411932 80.50221617142002
lradius 62.07987818887941
lwrist 10.805887727723956
lhand -14.424049048182065 -20.14199510076006
lfingers 7.125019999999871
lthumb 11.644799343759576 9.550986039267475
rfemur -21.993613180112977 4.398506853876686 31.12639729762631
rtibia 53.075830888031845
rfoot -9.3890943223935 -6.17574081730247
rtoes 11.980687686007663
lfemur -17.14508046447716 2.690842172163659 -14.847562439446953
ltibia 63.77681122668028
lfoot 1.3498446975265317 -10.254896071227346
ltoes -6.795224074443688
